# xmcd
#
# Track frame offsets:
#	150
#	16747
#	32925
#	46427
#	65002
#	86682
#	103190
#	114167
#	132300
#	156522
#	173435
#	193255
#
# Disc length: 2774 seconds
#
# Revision: 2
# Processed by: cddbd v1.5.2PL0 Copyright (c) Steve Scherf et al.
# Submitted via: audiograbber 1.82.02
#
DISCID=a10ad40c
DTITLE=Various Artist - The Rhythm and The Blues Disc 2
DYEAR=1991
DGENRE=Blues
TTITLE0=Dorothy Moore - Misty
TTITLE1=Z.Z. Hill - Cheatin' In The Next Room
TTITLE2=B.B. King - Sweet Little Angel
TTITLE3=Latimore - Take Me To The Mountain Top
TTITLE4=Bobby bland - If You Walk on My Love (Please take Off Your Shoes)
TTITLE5=Z.Z. Hill - Someone Else Is Steppin'
TTITLE6=Bobby Bland - St. James Infirmary
TTITLE7=Lynn White and J. Blackfoot - May The Best Man Win
TTITLE8=Mosely and Johnson - This Must Be The Blues
TTITLE9=Latimore - Careful Man
TTITLE10=Rose Brothers - I Get Off On You
TTITLE11=Denise LaSalle - Wet Match
EXTD=
EXTT0=
EXTT1=
EXTT2=
EXTT3=
EXTT4=
EXTT5=
EXTT6=
EXTT7=
EXTT8=
EXTT9=
EXTT10=
EXTT11=
PLAYORDER=
